<svg width="24" height="24" viewBox="0 0 24 24" fill="none"
     xmlns="http://www.w3.org/2000/svg" role="img" aria-labelledby="title">
  <title>Baby Bottle (Outlined)</title>
  <g stroke="currentColor" stroke-width="1.8" stroke-linecap="round" stroke-linejoin="round">
    <!-- Nipple -->
    <path d="M14.2 3.8c0-.97-.79-1.75-1.75-1.75s-1.75.78-1.75 1.75v1.0c0 .6.49 1.1 1.1 1.1h1.3c.61 0 1.1-.49 1.1-1.1v-1.0z"/>
    <!-- Cap / Ring -->
    <rect x="8.7" y="6" width="6.6" height="2.6" rx="1.1"/>
    <!-- Bottle body -->
    <path d="M7.3 10.2c0-.88.72-1.6 1.6-1.6h6.2c.88 0 1.6.72 1.6 1.6v7.1c0 1.66-1.34 3-3 3h-3.4c-1.66 0-3-1.34-3-3v-7.1z"/>
    <!-- Measurement ticks -->
    <path d="M10.2 10.8v6.2M12 10.8v4.8M13.8 10.8v3.2"/>
  </g>
</svg>
